<svg id="SvgjsSvg1344" width="857.109375" height="215" xmlns="http://www.w3.org/2000/svg" version="1.1" xmlns:xlink="http://www.w3.org/1999/xlink" xmlns:svgjs="http://svgjs.com/svgjs"><defs id="SvgjsDefs1345"><marker id="SvgjsMarker1376" markerWidth="14" markerHeight="10" refX="10" refY="5" viewBox="0 0 14 10" orient="auto" markerUnits="userSpaceOnUse" stroke-dasharray="0,0"><path id="SvgjsPath1377" d="M0,0 L14,5 L0,10 L0,0" fill="#323232" stroke="#323232" stroke-width="1"></path></marker><marker id="SvgjsMarker1380" markerWidth="14" markerHeight="10" refX="10" refY="5" viewBox="0 0 14 10" orient="auto" markerUnits="userSpaceOnUse" stroke-dasharray="0,0"><path id="SvgjsPath1381" d="M0,0 L14,5 L0,10 L0,0" fill="#323232" stroke="#323232" stroke-width="1"></path></marker></defs><g id="SvgjsG1346" transform="translate(170.6650574584924,25.008512258038422)"><path id="SvgjsPath1347" d="M 0 4Q 0 0 4 0L 504.8618810294075 0Q 508.8618810294075 0 508.8618810294075 4L 508.8618810294075 160.94701705055562Q 508.8618810294075 164.94701705055562 504.8618810294075 164.94701705055562L 4 164.94701705055562Q 0 164.94701705055562 0 160.94701705055562Z" stroke="none" fill-opacity="1" fill="#99ccff"></path><g id="SvgjsG1348"><text id="SvgjsText1349" font-family="微软雅黑" text-anchor="middle" font-size="13px" width="489px" fill="#323232" font-weight="400" align="middle" lineHeight="125%" anchor="middle" family="微软雅黑" size="13px" weight="400" font-style="" opacity="1" y="71.84850852527781" transform="rotate(0)"></text></g></g><g id="SvgjsG1350" transform="translate(25.012784090909065,99.46306818181813)"><path id="SvgjsPath1351" d="M 0 0L 124.62160778900306 0L 124.62160778900306 35.355213727170394L 0 35.355213727170394Z" stroke="none" fill="none"></path><g id="SvgjsG1352"><text id="SvgjsText1353" font-family="微软雅黑" text-anchor="middle" font-size="16px" width="125px" fill="#323232" font-weight="400" align="middle" lineHeight="125%" anchor="middle" family="微软雅黑" size="16px" weight="400" font-style="" opacity="1" y="3.677606863585197" transform="rotate(0)"><tspan id="SvgjsTspan1354" dy="20" x="62.5"><tspan id="SvgjsTspan1355" style="text-decoration:;font-weight: bold;">CdnComponent</tspan></tspan></text></g></g><g id="SvgjsG1356" transform="translate(232.6109688765996,119.8895397649951)"><path id="SvgjsPath1357" d="M 0 0L 409.67428973182007 0L 409.67428973182007 47.07558672460508L 0 47.07558672460508Z" stroke="rgba(50,50,50,1)" stroke-width="2" fill-opacity="1" fill="#ffffff"></path><g id="SvgjsG1358"><text id="SvgjsText1359" font-family="微软雅黑" text-anchor="middle" font-size="13px" width="390px" fill="#323232" font-weight="400" align="middle" lineHeight="125%" anchor="middle" family="微软雅黑" size="13px" weight="400" font-style="" opacity="1" y="12.91279336230254" transform="rotate(0)"><tspan id="SvgjsTspan1360" dy="16" x="205"><tspan id="SvgjsTspan1361" style="text-decoration:;">CdnCore</tspan></tspan></text></g></g><g id="SvgjsG1362" transform="translate(232.6109688765996,46.05707619925158)"><path id="SvgjsPath1363" d="M 0 0L 183.31634655552622 0L 183.31634655552622 48.608280245871555L 0 48.608280245871555Z" stroke="none" fill-opacity="1" fill="#3eaf7c"></path><g id="SvgjsG1364"><text id="SvgjsText1365" font-family="微软雅黑" text-anchor="middle" font-size="13px" width="164px" fill="#ffffff" font-weight="700" align="middle" lineHeight="125%" anchor="middle" family="微软雅黑" size="13px" weight="700" font-style="" opacity="1" y="13.679140122935777" transform="rotate(0)"><tspan id="SvgjsTspan1366" dy="16" x="92"><tspan id="SvgjsTspan1367" style="text-decoration:;">CdnVue</tspan></tspan></text></g></g><g id="SvgjsG1368" transform="translate(453.4133564973379,46.05707619925147)"><path id="SvgjsPath1369" d="M 0 0L 183.31634655552622 0L 183.31634655552622 48.608280245871555L 0 48.608280245871555Z" stroke="none" fill-opacity="1" fill="#61dafb"></path><g id="SvgjsG1370"><text id="SvgjsText1371" font-family="微软雅黑" text-anchor="middle" font-size="13px" width="164px" fill="#323232" font-weight="700" align="middle" lineHeight="125%" anchor="middle" family="微软雅黑" size="13px" weight="700" font-style="" opacity="1" y="13.679140122935777" transform="rotate(0)"><tspan id="SvgjsTspan1372" dy="16" x="92"><tspan id="SvgjsTspan1373" style="text-decoration:;">CdnReact</tspan></tspan></text></g></g><g id="SvgjsG1374"><path id="SvgjsPath1375" d="M325.012784090909 119.37215909090901L325.012784090909 107.51875776801603L325.012784090909 107.51875776801603L325.012784090909 97.26535644512319" stroke="#323232" stroke-width="2" fill="none" marker-end="url(#SvgjsMarker1376)"></path></g><g id="SvgjsG1378"><path id="SvgjsPath1379" d="M545.9218749999999 119.37215909090901L545.9218749999999 107.51875776801603L545.9218749999999 107.51875776801603L545.9218749999999 97.26535644512307" stroke="#323232" stroke-width="2" fill="none" marker-end="url(#SvgjsMarker1380)"></path></g><g id="SvgjsG1382" transform="translate(718.1238952020201,32.07292463960823)"><path id="SvgjsPath1383" d="M 0 0L 98.34343434343418 0L 114.34343434343418 16L 114.34343434343418 150.81819228741608L 0 150.81819228741608L 0 0Z" stroke="none" fill-opacity="1" fill="#ffffaa"></path><path id="SvgjsPath1384" d="M 98.34343434343418 0L 98.34343434343418 16L 114.34343434343418 16Z" stroke="none" fill-opacity="1" fill="#cdcdcd"></path><path id="SvgjsPath1385" d="M 0 0L 98.34343434343418 0L 114.34343434343418 16L 114.34343434343418 150.81819228741608L 0 150.81819228741608L 0 0Z" stroke="none" fill="none"></path><g id="SvgjsG1386"><text id="SvgjsText1387" font-family="微软雅黑" text-anchor="middle" font-size="13px" width="95px" fill="#323232" font-weight="400" align="middle" lineHeight="125%" anchor="middle" family="微软雅黑" size="13px" weight="400" font-style="" opacity="1" y="64.78409614370804" transform="rotate(0)"><tspan id="SvgjsTspan1388" dy="16" x="57.5"><tspan id="SvgjsTspan1389" style="text-decoration:;">渲染组件</tspan></tspan></text></g></g></svg>